<?xml version="1.0" encoding="utf-8"?>
<!-- Generator: Adobe Illustrator 26.5.0, SVG Export Plug-In . SVG Version: 6.00 Build 0)  -->
<svg width="103" height="30" viewBox="0 0 103 30" fill="none" xmlns="http://www.w3.org/2000/svg">
<style type="text/css">
	.st0{fill-rule:evenodd;clip-rule:evenodd;fill:#2A2F2C;}
	.st1{fill-rule:evenodd;clip-rule:evenodd;fill:#00A856;}
	.st2{fill-rule:evenodd;clip-rule:evenodd;fill:#49D791;}
</style>
<g>
	<path class="st0" d="M35.7,27.7c-1.5,1.2-3.5,2-6.1,2h-0.2c-2.6,0-4.7-0.8-6.2-2.1c-1.5-1.3-2.3-3.1-2.4-5.4h3.9
		c0.8,0,1.5,0.5,2.1,1.2c0.6,0.8,1.6,1.8,2.9,1.8c0.8,0,1.6-0.2,2.2-0.6c0.6-0.4,1-1,1-1.8c0-0.9-0.5-1.4-1.3-1.8
		c-0.8-0.4-1.8-0.6-2.9-0.8c-1.7-0.3-3.5-0.7-5-1.6c-0.7-0.5-1.3-1.1-1.8-1.9c-0.4-0.8-0.7-1.8-0.7-3.1c0-2,0.8-3.8,2.2-5
		c1.4-1.2,3.5-1.9,6-1.9s4.5,0.7,6,2c1.4,1.2,2.2,2.9,2.2,5h-3.7c-0.8,0-1.6-0.5-2.1-1.2c-0.5-0.7-1.4-1.4-2.5-1.4
		c-0.9,0-1.6,0.2-2.2,0.6c-0.5,0.4-0.8,1-0.8,1.7c0,0.4,0.1,0.8,0.4,1c0.2,0.3,0.5,0.5,0.9,0.7c0.7,0.3,1.8,0.5,2.8,0.7h0l0.1,0
		c1.7,0.3,3.6,0.7,5,1.6c0.7,0.5,1.4,1,1.8,1.9c0.4,0.8,0.7,1.8,0.7,3.1C38,24.7,37.1,26.5,35.7,27.7z"/>
	<path class="st0" d="M41.1,19.9V7.3h3.1c1.2,0,2.1,1,2.1,2.3v9.7c0,1.6,0.4,2.9,1.2,3.8c0.8,0.9,1.9,1.4,3.2,1.4
		c1.4,0,2.5-0.5,3.2-1.4c0.8-0.9,1.1-2.2,1.1-3.8V9.6c0-1.3,1-2.3,2.1-2.3h3.1v12.6c0,2.9-1,5.4-2.6,7.1c-1.7,1.7-4.1,2.7-7,2.7
		c-2.9,0-5.3-1-7-2.7C42,25.3,41.1,22.9,41.1,19.9z"/>
	<path class="st0" d="M78.2,27.7c-1.5,1.2-3.5,2-6.1,2H72c-2.6,0-4.7-0.8-6.2-2.1c-1.5-1.3-2.3-3.2-2.4-5.4h3.9
		c0.8,0,1.5,0.5,2.1,1.2c0.6,0.8,1.6,1.8,2.9,1.8c0.8,0,1.6-0.2,2.2-0.6c0.6-0.4,1-1,1-1.8c0-0.9-0.5-1.4-1.3-1.8
		c-0.8-0.4-1.8-0.6-2.9-0.8c-1.7-0.3-3.5-0.7-5-1.6c-0.7-0.5-1.3-1.1-1.8-1.9c-0.4-0.8-0.7-1.8-0.7-3.1c0-2,0.8-3.8,2.2-5
		c1.4-1.2,3.5-1.9,6-1.9s4.5,0.7,6,2c1.4,1.2,2.2,2.9,2.2,5h-3.7c-0.8,0-1.6-0.5-2.1-1.2c-0.5-0.7-1.4-1.4-2.5-1.4
		c-0.9,0-1.6,0.2-2.2,0.6c-0.5,0.4-0.8,1-0.8,1.7c0,0.4,0.1,0.8,0.4,1c0.2,0.3,0.5,0.5,0.9,0.7c0.7,0.3,1.8,0.5,2.8,0.7h0l0.1,0
		c1.7,0.3,3.6,0.7,5,1.6c0.7,0.5,1.4,1,1.8,1.9c0.4,0.8,0.7,1.8,0.7,3.1C80.6,24.7,79.7,26.5,78.2,27.7z"/>
	<path class="st0" d="M83.7,19.9V7.3h3.1c1.2,0,2.1,1,2.1,2.3v9.7c0,1.6,0.4,2.9,1.2,3.8c0.8,0.9,1.9,1.4,3.2,1.4
		c1.4,0,2.5-0.5,3.2-1.4c0.8-0.9,1.1-2.2,1.1-3.8V9.6c0-1.3,1-2.3,2.1-2.3h3.1v12.6c0,2.9-1,5.4-2.6,7.1c-1.7,1.7-4.1,2.7-7,2.7
		c-2.9,0-5.3-1-7-2.7C84.6,25.3,83.7,22.9,83.7,19.9z"/>
	<path class="st0" d="M14.8,23.3H1.6C0.7,23.2,0,22.7,0,22v1.4l0,0v3.3c0,1.4,1,2.5,2.3,2.5h14.7v-3.3
		C17.1,24.4,16.1,23.3,14.8,23.3z"/>
	<path class="st1" d="M17.1,3.6V0.3H2.4C1.1,0.3,0,1.4,0,2.8V6v2.5l0,0c0.1-1.3,0.7-2.3,1.6-2.4v0h13.2C16.1,6,17.1,4.9,17.1,3.6z"
		/>
	<path class="st2" d="M17.1,15.1v-3.3H2.4c-1.3,0-2.3,1.1-2.3,2.5v3.3l0,0v1.2c0-0.6,0.7-1.2,1.6-1.2l0,0h13.2
		C16.1,17.6,17.1,16.5,17.1,15.1z"/>
</g>
</svg>
